<svg xmlns="http://www.w3.org/2000/svg" width="160" height="65"><path fill-rule="evenodd" d="M157.94 49.37c-1.24.17-2.53.28-3.76.38v.06c-2.42 17.36-26.19 20.23-26.78 6.6-.27-6.17 11.59-7.95 23.4-9.09.43-11.09-15.9 5.67-21.61-4.6-5.02-9.03 14.63-17.94 16.73-16.1 6.44 5.63 3.4 6.61-1.38 8.33-9.49 3.41-5.79 4.11-4.51 3.73 7.57-2.26 14.36-1.04 14.31 8.31 1.29-.1 2.52-.16 3.76-.27 2.3-.21 2.46 2.44-.16 2.65zm-7.52.76c-9.12 1.03-17.01 2.44-16.15 5.35 1.72 5.58 13.58 6.82 16.15-5.35z"/><path d="M117.68 44.92c-.68-.04-.71-6.04.11-11.69 1-6.95 11.93-3.36 9.09-1.91-2.97 1.52-4.43 8.72-6.26 12.09-.64 1.16-2.61 1.53-2.94 1.51zM42.1 21c2.38 4.87-4.93 8.17-8.29 4.52-1.4-1.55-.75-4.56 2.64-6.19 1.7-.84 4.07-1.6 5.65 1.67zM57.06 18.86c2.59 5.3-5.38 8.9-9.03 4.92-1.52-1.69-.82-4.96 2.87-6.74 1.85-.91 4.44-1.74 6.16 1.82zM28.88 61.67C20.96 67 14.66 65.83 16.67 50.82c1.45-10.91-.95-11.52-3.12-9.44-2.85 2.69-4.63 9.72-4.69 16.41.28 1.68.62 3.31 1.01 4.77.33 1.63-4.91 3.32-7.98 1.01C.84 62.79 0 54.87 0 44.13c0-8.82 1.17-14.89 2.23-15.17 8.03-2.19 9.31 1.34 7.58 7.98a47.47 47.47 0 00-1.39 7.92c1.67-4.66 4.07-8.48 6.8-10.17 7.42-4.67 13.61-2.48 12.44 6.8-2.01 16.58-2.18 18.83-.39 17.53 2.23-1.57 3.68 1.24 1.61 2.65z"/><path fill-rule="evenodd" d="M54.98 59.59c-2.17 3.48-7.8 5.17-13.21 4.55-7.75-.84-12.55-7.75-10.71-18.1 2.01-11.18 18.07-18.32 23.2-10.34 3.73 5.79-2.18 16.02-11.6 19.79l-.5.16c1.95 5.18 6.58 7.48 11.04 2.36 2.12-2.35 3.62-1.34 1.78 1.58zm-13.6-7.42c5.85-4.16 7.8-13.32 6.19-15.9-1.73-2.7-5.08 1.51-6.25 11.74-.11 1.46-.11 2.87.06 4.16z"/><path d="M83.09 44.99c-1.6 2.51-3.9 4.39-5.96 5.06-2.4.73-5.19.06-5.19-2.7 0-1.01.89-3.37 3.62-4.72-.16-1.91-1.39-2.42-2.28-1.68-3.35 2.58-7.42 12.25-6.36 19.22.06.16.06.33.06.5.17.62.33 1.24.56 1.86.55 1.57-4.91 3.31-7.98.95-1.06-.79-1.61-6.97-1.61-17.7 0-8.83 1.95-16.64 3.01-16.92 6.41-1.74 10.14 1.29 8.14 7.25a65.67 65.67 0 00-2.85 10.4c2.46-6.69 6.53-12.87 9.82-14.5 5.85-2.92 10.09.95 8.86 7.81-.05.11-.11.39-.11.45-.06.56-.57 2.3-.39 1.74a10.53 10.53 0 01-1.34 2.98z"/><path fill-rule="evenodd" d="M113.21 26.16c-.45 2.3-.84 4.83-1.12 7.53-1.06 10.06-.61 19 .61 22.99.73 2.13 3.46 4.94 6.08 2.02 2.85-3.2 5.97-1.35 2.18 2.42-2.34 2.3-6.69 3.88-11.04 3.43-3.12-.4-5.02-2.42-6.14-5.51a8.3 8.3 0 01-1.56 2.3c-2.11 2.19-4.68 3.43-7.97 3.09-6.64-.73-10.54-7.92-8.7-18.15 1.95-10.79 11.32-14.72 16.73-11.86l.33-4.1c.06-.28.06-.56.11-.84-1.56.34-3.23.67-4.96.95-23.97 3.99-15.72-15.57-9.87-20.68 6.64-5.73 7.36-1.86 5.3-.56-3.68 2.36-5.3 15.9 5.24 15.9 1.73 0 3.35-.11 4.96-.28 3.3-18.32 13.28-27.2 21.36-24.28 8.98 3.26 8.03 17.54-11.54 25.63zm-10.93 24.39c-.23-3.54-.23-7.53-.17-11.63 0-.51.06-1.01.06-1.46-3.35-1.52-6.64 3.65-7.48 10.79-.94 8.37 2.79 12.81 4.91 10.79 1.62-1.63 2.46-6.8 2.68-8.49zm24.08-43.16c-1.78-2.64-8.3.56-12.09 14.33 9.53-4.55 13.32-12.42 12.09-14.33z"/></svg>