<svg xmlns="http://www.w3.org/2000/svg" viewBox="0 0 21 21" width="21" height="21"><style>tspan { white-space:pre }.shp0 { fill: #fb565a } </style><path class="shp0" d="M13.33 10.5L20.7 3.13C21.09 2.74 21.09 2.1 20.7 1.71L19.28 0.3C18.9 -0.09 18.26 -0.09 17.87 0.3L10.5 7.67L3.13 0.3C2.74 -0.09 2.1 -0.09 1.72 0.3L0.3 1.72C-0.09 2.1 -0.09 2.74 0.3 3.13L7.67 10.5L0.3 17.87C-0.09 18.26 -0.09 18.9 0.3 19.29L1.72 20.7C2.1 21.09 2.74 21.09 3.13 20.7L10.5 13.33L17.87 20.7C18.26 21.09 18.9 21.09 19.29 20.7L20.7 19.29C21.09 18.9 21.09 18.26 20.7 17.87L13.33 10.5Z" /></svg>